<svg xmlns="http://www.w3.org/2000/svg" width="249.7" height="38.3" viewBox="0 0 249.7 38.3"><path d="M81.7,5.9h6.8L78.8,32.8H73.2l-5.7-16-5.7,16H56.2L46.5,5.9h7.3l5.5,17,6-17h4.9l5.7,17.3Z"/><path d="M91.3,32.8V5.9h19.2v5.4H98.2v5.1h11.5v5.5H98.2v5.5h12.3v5.4Z"/><path d="M136.7,21.3a6.4,6.4,0,0,1,1.3,4.2,6.9,6.9,0,0,1-1.2,3.9,7.6,7.6,0,0,1-3.3,2.5,13.6,13.6,0,0,1-5.1.9H114.9V5.9H128a10.5,10.5,0,0,1,6.7,1.9,6.1,6.1,0,0,1,2.5,5.1,6,6,0,0,1-1.1,3.7,6.2,6.2,0,0,1-3.1,2.3A6.1,6.1,0,0,1,136.7,21.3Zm-14.9-4.8h5a4.6,4.6,0,0,0,2.9-.7,2.1,2.1,0,0,0,.9-1.9,2.3,2.3,0,0,0-.9-2,5.7,5.7,0,0,0-2.9-.6h-5Zm8.7,10.3a2.6,2.6,0,0,0,.8-2.1c0-1.1-.2-1.8-.8-2.2a4.7,4.7,0,0,0-3-.7h-5.7v5.7h5.7A5.5,5.5,0,0,0,130.5,26.8Z"/><path d="M145.3,32.4a17.8,17.8,0,0,1-4.8-2.2l2.2-5a19.5,19.5,0,0,0,4.2,1.9,17.6,17.6,0,0,0,4.5.7,7,7,0,0,0,3.5-.7,1.9,1.9,0,0,0,1.2-1.7,2,2,0,0,0-1.1-1.7,16.1,16.1,0,0,0-4.2-1.3,20.4,20.4,0,0,1-5.9-1.9,7.1,7.1,0,0,1-3-2.6,8.1,8.1,0,0,1-.8-3.7,7.7,7.7,0,0,1,1.4-4.4,8.7,8.7,0,0,1,3.9-3.1,13.4,13.4,0,0,1,5.8-1.1,18.7,18.7,0,0,1,5.7.8,11.5,11.5,0,0,1,4.3,2.1l-2.2,5a19.3,19.3,0,0,0-3.8-1.9,13.2,13.2,0,0,0-3.9-.6,5.7,5.7,0,0,0-3.1.7,2.3,2.3,0,0,0-1.2,2,1.5,1.5,0,0,0,.4,1.1,4.5,4.5,0,0,0,1.6.9,19.6,19.6,0,0,0,3.4.9,23.2,23.2,0,0,1,5.7,2,7.1,7.1,0,0,1,3,2.6,6.8,6.8,0,0,1,.9,3.5,7.1,7.1,0,0,1-3.1,6.2c-2,1.5-4.9,2.3-8.6,2.3A24.7,24.7,0,0,1,145.3,32.4Z"/><path d="M184.9,5.9h6.9V32.8h-6.9V21.9H174V32.8h-7V5.9h7V16.4h10.9Z"/><path d="M202.3,31.5a11.5,11.5,0,0,1-4.7-4.8,15.8,15.8,0,0,1-1.6-7.4,15.4,15.4,0,0,1,1.6-7.3,12.7,12.7,0,0,1,4.7-4.8,15.3,15.3,0,0,1,7.2-1.6,15,15,0,0,1,7.2,1.6,11.8,11.8,0,0,1,4.6,4.8,15.4,15.4,0,0,1,1.7,7.3,15.8,15.8,0,0,1-1.7,7.4,10.7,10.7,0,0,1-4.6,4.8,15,15,0,0,1-7.2,1.7A15.3,15.3,0,0,1,202.3,31.5Zm12-5.9c1.1-1.4,1.7-3.5,1.7-6.3a10,10,0,0,0-1.7-6.2,6,6,0,0,0-4.8-2.1,5.7,5.7,0,0,0-4.7,2.1c-1.2,1.4-1.7,3.5-1.7,6.2s.5,4.9,1.7,6.3a5.5,5.5,0,0,0,4.7,2.2A6.1,6.1,0,0,0,214.3,25.6Z"/><path d="M227.2,5.9H240c3.1,0,5.4.7,7.1,2.2a7.6,7.6,0,0,1,2.6,6,7.6,7.6,0,0,1-2.6,6c-1.7,1.5-4.1,2.2-7.1,2.2h-5.7V32.8h-7.1ZM239,17c2.7,0,4-.9,4-2.8a2.7,2.7,0,0,0-.9-2.2,5.3,5.3,0,0,0-3.1-.7h-4.7V17Z"/><path d="M13.2,23.2l4.3-12.4h3.6l4.2,12.6L31.6,4.6A19.2,19.2,0,0,0,7,4.3Z" fill="#ff692a"/><path d="M35.2,8.7,27.4,30.4H23.3L19.2,18.8,15,30.4H10.9L3.1,8.7A19.5,19.5,0,0,0,0,19.1a19.2,19.2,0,1,0,38.3,0A19.5,19.5,0,0,0,35.2,8.7Z" fill="#ff692a"/></svg>