<svg width="199" height="40" viewBox="0 0 199 40" fill="none" xmlns="http://www.w3.org/2000/svg">
<g clip-path="url(#clip0_16_2975)">
<path d="M189.632 39.9999H2.66249C1.95635 39.9999 1.27914 39.7194 0.779825 39.2201C0.280512 38.7208 0 38.0436 0 37.3375L0 2.66243C0 1.95629 0.280512 1.27908 0.779825 0.779765C1.27914 0.280451 1.95635 -6.10034e-05 2.66249 -6.10034e-05H189.632C190.18 -0.00530163 190.717 0.160949 191.166 0.47545C191.615 0.789951 191.955 1.23698 192.138 1.75405L198.465 19.1072C198.684 19.6931 198.684 20.3381 198.465 20.924L192.138 38.2772C191.946 38.7858 191.603 39.2235 191.155 39.5315C190.707 39.8395 190.176 40.003 189.632 39.9999Z" fill="#661AFF"/>
<path d="M25.7165 19.7964C25.7165 24.4009 22.4902 27.8778 17.4784 27.8778H12.1534V11.715H17.4784C22.4902 11.715 25.7165 15.1919 25.7165 19.7964ZM14.8473 14.0016V25.6226H17.4784C20.8927 25.6226 22.96 23.3986 22.96 19.7964C22.96 16.1942 20.8927 14.0016 17.4784 14.0016H14.8473Z" fill="white"/>
<path d="M38.7471 24.0564C38.2772 26.6249 35.9906 28.1597 33.2655 28.1597C29.6319 28.1597 27.1887 25.3093 27.1887 21.6758C27.1887 18.0423 29.538 15.1919 33.0462 15.1919C36.5544 15.1919 39.0916 18.1989 38.4338 22.083H29.8199C29.9452 24.213 31.2294 25.7792 33.2655 25.7792C34.769 25.7792 35.8966 24.9648 36.2412 23.5865L38.7471 24.0564ZM30.0078 19.953H35.8653C35.8249 19.2771 35.5192 18.6444 35.0147 18.1928C34.5102 17.7411 33.8478 17.5069 33.1715 17.5411C32.4478 17.5204 31.7389 17.7486 31.1631 18.1876C30.5874 18.6265 30.1796 19.2497 30.0078 19.953Z" fill="white"/>
<path d="M38.9037 15.4424H41.6601L44.9178 24.9334L48.0501 15.4424H50.7439L46.3587 27.8778H43.4769L38.9037 15.4424Z" fill="white"/>
<path d="M62.4588 24.0564C61.989 26.6249 59.7024 28.1597 56.9773 28.1597C53.3437 28.1597 50.9005 25.3093 50.9005 21.6758C50.9005 18.0423 53.2498 15.1919 56.758 15.1919C60.2662 15.1919 62.8034 18.1989 62.1456 22.083H53.5317C53.657 24.213 54.9412 25.7792 56.9773 25.7792C58.5121 25.7792 59.6084 24.9648 59.953 23.5865L62.4588 24.0564ZM53.7196 19.953H59.5771C59.5367 19.2771 59.231 18.6444 58.7265 18.1928C58.222 17.7411 57.5596 17.5069 56.8833 17.5411C56.1609 17.5262 55.4548 17.7566 54.8803 18.1946C54.3057 18.6326 53.8966 19.2525 53.7196 19.953Z" fill="white"/>
<path d="M67.0008 27.8778H64.3696V11.715H67.0008V27.8778Z" fill="white"/>
<path d="M68.9429 21.6758C68.9429 17.7291 71.2608 15.1919 74.7377 15.1919C78.2146 15.1919 80.5639 17.6977 80.5639 21.6758C80.5639 25.6539 78.2772 28.1597 74.7377 28.1597C71.1982 28.1597 68.9429 25.6226 68.9429 21.6758ZM77.9327 21.6758C77.9327 19.1073 76.6484 17.5724 74.7377 17.5724C72.827 17.5724 71.574 19.1073 71.574 21.6758C71.574 24.2443 72.8896 25.7792 74.7377 25.7792C76.5858 25.7792 77.9327 24.213 77.9327 21.6758Z" fill="white"/>
<path d="M94.0642 21.6758C94.0642 25.5912 91.809 28.1597 88.7079 28.1597C87.9863 28.1644 87.2761 27.9786 86.6492 27.6211C86.0222 27.2636 85.5007 26.7471 85.1371 26.1237V31.7306H82.5372V15.4424H84.8238L85.0118 17.4158C85.3662 16.7431 85.8981 16.1802 86.5496 15.7882C87.2011 15.3962 87.9476 15.1899 88.7079 15.1919C91.8403 15.1919 94.0642 17.7604 94.0642 21.6758ZM91.4644 21.6758C91.4644 19.1386 90.1488 17.5724 88.2381 17.5724C86.3274 17.5724 85.1371 19.1699 85.1371 21.6758C85.1371 24.1817 86.39 25.7792 88.2381 25.7792C90.0862 25.7792 91.4644 24.1817 91.4644 21.6758Z" fill="white"/>
<path d="M106.907 24.0564C106.437 26.6249 104.182 28.1597 101.456 28.1597C97.7917 28.1597 95.3798 25.3093 95.3798 21.6758C95.3798 18.0423 97.6977 15.1919 101.206 15.1919C104.714 15.1919 107.251 18.1989 106.625 22.083H97.9796C98.1049 24.213 99.3892 25.7792 101.456 25.7792C102.96 25.7792 104.088 24.9648 104.401 23.5865L106.907 24.0564ZM98.1675 19.953H104.025C103.931 18.5435 102.835 17.5411 101.331 17.5411C100.609 17.5262 99.9028 17.7566 99.3282 18.1946C98.7536 18.6326 98.3445 19.2525 98.1675 19.953Z" fill="white"/>
<path d="M116.179 17.7291H114.049C112.326 17.7291 111.449 19.1699 111.449 21.3626V27.8778H108.849V15.4424H111.104L111.292 17.4158C111.699 16.2255 112.639 15.4424 113.892 15.4424H115.834L116.179 17.7291Z" fill="white"/>
<path d="M129.084 21.6758C129.084 25.5912 126.86 28.1597 123.727 28.1597C122.963 28.1622 122.213 27.9527 121.561 27.5546C120.908 27.1565 120.379 26.5853 120.031 25.9045L119.843 27.8778H117.557V11.715H120.157V17.2279C120.523 16.6066 121.045 16.0918 121.671 15.7347C122.297 15.3775 123.006 15.1904 123.727 15.1919C126.86 15.1919 129.084 17.7604 129.084 21.6758ZM126.484 21.6758C126.484 19.1386 125.2 17.5724 123.258 17.5724C121.316 17.5724 120.157 19.1699 120.157 21.6758C120.157 24.1817 121.41 25.7792 123.258 25.7792C125.106 25.7792 126.484 24.1817 126.484 21.6758Z" fill="white"/>
<path d="M141.582 15.4424V27.8778H139.326L139.107 25.7165C138.812 26.4444 138.304 27.0666 137.651 27.5023C136.997 27.938 136.228 28.1671 135.442 28.1598C132.78 28.1598 130.963 26.3743 130.963 23.5552V15.4424H133.594V22.9914C133.594 24.7455 134.628 25.7792 136.194 25.7792C137.76 25.7792 138.982 24.3383 138.982 22.5215V15.4424H141.582Z" fill="white"/>
<path d="M155.145 11.715V27.8778H152.858L152.67 25.8731C152.322 26.5623 151.789 27.1411 151.131 27.5448C150.473 27.9486 149.715 28.1615 148.943 28.1597C145.842 28.1597 143.587 25.5912 143.587 21.6758C143.587 17.7604 145.811 15.1919 148.943 15.1919C149.669 15.1881 150.383 15.3739 151.015 15.731C151.646 16.0882 152.174 16.6041 152.545 17.2279V11.715H155.145ZM152.545 21.6758C152.545 19.1699 151.261 17.5411 149.413 17.5411C147.565 17.5411 146.218 19.1386 146.218 21.6758C146.218 24.213 147.502 25.7792 149.413 25.7792C151.323 25.7792 152.545 24.1817 152.545 21.6758Z" fill="white"/>
<path d="M168.708 11.715V27.8778H166.421L166.233 25.8731C165.888 26.5646 165.355 27.1454 164.697 27.5496C164.038 27.9537 163.279 28.1651 162.506 28.1598C159.405 28.1598 157.15 25.5912 157.15 21.6758C157.15 17.7604 159.373 15.1919 162.506 15.1919C163.232 15.1881 163.946 15.3739 164.578 15.731C165.209 16.0882 165.737 16.6041 166.108 17.2279V11.715H168.708ZM166.108 21.6758C166.108 19.1699 164.855 17.5411 163.007 17.5411C161.159 17.5411 159.781 19.1386 159.781 21.6758C159.781 24.213 161.096 25.7792 163.007 25.7792C164.918 25.7792 166.108 24.1817 166.108 21.6758Z" fill="white"/>
<path d="M182.24 15.4424L177.228 28.3164C176.257 30.8222 174.785 31.7306 171.652 31.7306H170.399L170.055 29.444H171.464C173.532 29.444 174.252 28.7862 174.785 27.408L174.879 27.1887L170.274 15.4424H173.093L176.257 23.6179L179.452 15.4424H182.24Z" fill="white"/>
</g>
<defs>
<clipPath id="clip0_16_2975">
<rect width="198.622" height="40" fill="white"/>
</clipPath>
</defs>
</svg>
