<?xml version="1.0" encoding="UTF-8" standalone="no"?>
<!-- Generator: Adobe Illustrator 16.0.0, SVG Export Plug-In . SVG Version: 6.00 Build 0)  -->

<svg
   xmlns:dc="http://purl.org/dc/elements/1.1/"
   xmlns:cc="http://creativecommons.org/ns#"
   xmlns:rdf="http://www.w3.org/1999/02/22-rdf-syntax-ns#"
   xmlns:svg="http://www.w3.org/2000/svg"
   xmlns="http://www.w3.org/2000/svg"
   xmlns:xlink="http://www.w3.org/1999/xlink"
   xmlns:sodipodi="http://sodipodi.sourceforge.net/DTD/sodipodi-0.dtd"
   xmlns:inkscape="http://www.inkscape.org/namespaces/inkscape"
   version="1.1"
   id="Layer_1"
   x="0px"
   y="0px"
   width="250"
   height="90"
   viewBox="0 0 250.00001 89.999997"
   enable-background="new 0 0 649.134 459.213"
   xml:space="preserve"
   sodipodi:docname="ongoing_logo.svg"
   inkscape:version="0.92.3 (2405546, 2018-03-11)"><metadata
   id="metadata3889"><rdf:RDF><cc:Work
       rdf:about=""><dc:format>image/svg+xml</dc:format><dc:type
         rdf:resource="http://purl.org/dc/dcmitype/StillImage" /><dc:title></dc:title></cc:Work></rdf:RDF></metadata><defs
   id="defs3887" /><sodipodi:namedview
   pagecolor="#ffffff"
   bordercolor="#666666"
   borderopacity="1"
   objecttolerance="10"
   gridtolerance="10"
   guidetolerance="10"
   inkscape:pageopacity="0"
   inkscape:pageshadow="2"
   inkscape:window-width="1920"
   inkscape:window-height="1137"
   id="namedview3885"
   showgrid="false"
   fit-margin-top="0"
   fit-margin-left="0"
   fit-margin-right="0"
   fit-margin-bottom="0"
   inkscape:zoom="0.97035431"
   inkscape:cx="406.55709"
   inkscape:cy="-39.978848"
   inkscape:window-x="-8"
   inkscape:window-y="-8"
   inkscape:window-maximized="1"
   inkscape:current-layer="Layer_1" />
<g
   id="g3882"
   transform="matrix(1.3748902,0,0,1.3290931,-44.768265,-13.22709)">
	<defs
   id="defs3803">
		<rect
   id="SVGID_1_"
   x="34.015999"
   y="29.497"
   width="160.69"
   height="47.57" />
	</defs>
	<clipPath
   id="SVGID_2_">
		<use
   xlink:href="#SVGID_1_"
   overflow="visible"
   id="use3805"
   style="overflow:visible"
   x="0"
   y="0"
   width="100%"
   height="100%" />
	</clipPath>
	<path
   clip-path="url(#SVGID_2_)"
   d="m 41.75,56.741 c -2.296,0 -4.159,-0.689 -5.589,-2.068 -1.431,-1.379 -2.146,-3.166 -2.146,-5.36 0,-3.187 1.059,-5.879 3.177,-8.072 2.118,-2.194 4.717,-3.291 7.799,-3.291 2.407,0 4.303,0.763 5.69,2.29 1.387,1.526 2.082,3.361 2.082,5.506 0,3.052 -1.053,5.647 -3.159,7.786 -2.104,2.139 -4.723,3.209 -7.854,3.209 m 2.747,-14.78 c -1.513,0 -2.715,0.803 -3.606,2.409 -0.892,1.605 -1.338,3.311 -1.338,5.118 0,0.989 0.234,1.777 0.701,2.363 0.468,0.586 1.1,0.879 1.9,0.879 1.488,0 2.705,-0.8 3.652,-2.399 0.947,-1.6 1.421,-3.303 1.421,-5.111 0,-0.988 -0.246,-1.778 -0.738,-2.371 -0.492,-0.592 -1.156,-0.888 -1.992,-0.888"
   id="path3808"
   inkscape:connector-curvature="0"
   style="fill:#005288" />
	<path
   clip-path="url(#SVGID_2_)"
   d="m 52.558,56.261 0.865,-3.793 h 1.969 l 2.373,-10.246 h -2.678 l 0.864,-3.793 h 8.148 l -0.515,2.227 c 1.688,-1.041 2.92,-1.709 3.697,-2.003 0.776,-0.295 1.587,-0.442 2.432,-0.442 1.198,0 2.18,0.383 2.945,1.151 0.764,0.767 1.147,1.782 1.147,3.046 0,0.504 -0.061,1.025 -0.184,1.565 l -1.971,8.495 h 2.446 l -0.884,3.793 h -7.879 l 2.612,-11.272 c 0.085,-0.368 0.128,-0.694 0.128,-0.977 0,-1.019 -0.435,-1.528 -1.306,-1.528 -0.895,0 -2.249,0.658 -4.064,1.975 l -1.854,8.009 h 2.26 l -0.882,3.793 z"
   id="path3810"
   inkscape:connector-curvature="0"
   style="fill:#005288" />
	<path
   clip-path="url(#SVGID_2_)"
   d="m 73.281,62.899 1.656,-3.931 c 2.269,1.017 4.219,1.526 5.851,1.526 3.336,0 5.353,-1.419 6.052,-4.256 l 0.497,-1.949 -0.074,-0.092 c -1.51,1.466 -3.107,2.199 -4.789,2.199 -1.94,0 -3.5,-0.674 -4.678,-2.021 -1.179,-1.348 -1.768,-3.13 -1.768,-5.348 0,-2.867 0.936,-5.378 2.808,-7.534 1.872,-2.156 4.036,-3.234 6.491,-3.234 2.123,0 3.774,1.05 4.953,3.15 l 0.68,-2.976 h 7.521 l -0.868,3.793 h -1.96 l -3.111,13.442 c -1.386,5.979 -5.09,8.968 -11.111,8.968 -3.164,0.001 -5.881,-0.578 -8.15,-1.737 m 8.283,-13.908 c 0,0.964 0.261,1.742 0.784,2.333 0.521,0.592 1.249,0.887 2.183,0.887 1.389,0 2.497,-0.655 3.327,-1.966 0.829,-1.312 1.244,-2.803 1.244,-4.474 0,-0.927 -0.259,-1.699 -0.775,-2.314 -0.516,-0.616 -1.21,-0.925 -2.082,-0.925 -1.351,0 -2.47,0.702 -3.354,2.105 -0.884,1.402 -1.327,2.854 -1.327,4.354"
   id="path3812"
   inkscape:connector-curvature="0" />
	<path
   clip-path="url(#SVGID_2_)"
   d="m 105.106,56.745 c -2.296,0 -4.159,-0.69 -5.589,-2.068 -1.431,-1.379 -2.146,-3.166 -2.146,-5.36 0,-3.187 1.059,-5.878 3.177,-8.072 2.118,-2.194 4.717,-3.291 7.799,-3.291 2.407,0 4.303,0.763 5.69,2.29 1.388,1.525 2.082,3.361 2.082,5.506 0,3.052 -1.053,5.647 -3.159,7.786 -2.105,2.139 -4.722,3.209 -7.854,3.209 m 2.747,-14.78 c -1.513,0 -2.715,0.803 -3.606,2.409 -0.892,1.605 -1.338,3.311 -1.338,5.118 0,0.989 0.234,1.777 0.701,2.363 0.468,0.586 1.1,0.879 1.9,0.879 1.488,0 2.706,-0.8 3.653,-2.4 0.946,-1.599 1.42,-3.302 1.42,-5.11 0,-0.988 -0.246,-1.778 -0.738,-2.371 -0.492,-0.592 -1.157,-0.888 -1.992,-0.888"
   id="path3814"
   inkscape:connector-curvature="0" />
	<path
   clip-path="url(#SVGID_2_)"
   d="m 118.747,52.473 2.373,-10.246 h -2.409 l 0.864,-3.793 h 7.88 l -3.251,14.039 h 2.41 l -0.865,3.793 h -9.836 l 0.871,-3.793 z m 7.045,-16.96 c -0.824,0 -1.529,-0.296 -2.112,-0.888 -0.586,-0.593 -0.878,-1.303 -0.878,-2.13 0,-0.839 0.292,-1.549 0.878,-2.129 0.583,-0.579 1.288,-0.869 2.112,-0.869 0.837,0 1.55,0.293 2.141,0.878 0.591,0.587 0.886,1.294 0.886,2.12 0,0.827 -0.298,1.537 -0.895,2.13 -0.597,0.592 -1.307,0.888 -2.132,0.888"
   id="path3816"
   inkscape:connector-curvature="0" />
	<path
   clip-path="url(#SVGID_2_)"
   d="m 127.412,56.266 0.865,-3.793 h 1.969 l 2.372,-10.246 h -2.677 l 0.864,-3.793 h 8.148 l -0.516,2.227 c 1.689,-1.042 2.921,-1.709 3.698,-2.004 0.776,-0.294 1.587,-0.441 2.431,-0.441 1.199,0 2.181,0.383 2.945,1.15 0.765,0.768 1.148,1.783 1.148,3.047 0,0.503 -0.062,1.025 -0.184,1.565 l -1.971,8.495 h 2.445 l -0.883,3.793 h -7.88 l 2.612,-11.272 c 0.086,-0.368 0.129,-0.694 0.129,-0.977 0,-1.019 -0.436,-1.529 -1.306,-1.529 -0.895,0 -2.25,0.659 -4.064,1.976 l -1.854,8.009 h 2.26 l -0.883,3.793 z"
   id="path3818"
   inkscape:connector-curvature="0" />
	<path
   clip-path="url(#SVGID_2_)"
   d="m 147.984,62.899 1.656,-3.931 c 2.269,1.017 4.219,1.526 5.851,1.526 3.335,0 5.353,-1.419 6.053,-4.256 l 0.496,-1.949 -0.074,-0.092 c -1.51,1.466 -3.107,2.199 -4.789,2.199 -1.94,0 -3.5,-0.674 -4.678,-2.021 -1.179,-1.348 -1.768,-3.13 -1.768,-5.348 0,-2.867 0.936,-5.378 2.808,-7.534 1.872,-2.156 4.036,-3.234 6.491,-3.234 2.123,0 3.774,1.05 4.953,3.15 l 0.681,-2.976 h 7.52 l -0.868,3.793 h -1.96 l -3.111,13.442 c -1.386,5.979 -5.09,8.968 -11.111,8.968 -3.164,0.001 -5.881,-0.578 -8.15,-1.737 m 8.284,-13.908 c 0,0.964 0.261,1.742 0.784,2.333 0.521,0.592 1.25,0.887 2.183,0.887 1.389,0 2.497,-0.655 3.327,-1.966 0.829,-1.312 1.244,-2.803 1.244,-4.474 0,-0.927 -0.258,-1.699 -0.775,-2.314 -0.516,-0.616 -1.21,-0.925 -2.082,-0.925 -1.351,0 -2.47,0.702 -3.354,2.105 -0.885,1.402 -1.327,2.854 -1.327,4.354"
   id="path3820"
   inkscape:connector-curvature="0" />
	<path
   clip-path="url(#SVGID_2_)"
   d="m 179.374,31.092 c 1.544,0 2.774,1.256 2.774,2.826 0,1.594 -1.23,2.837 -2.788,2.837 -1.544,0 -2.799,-1.243 -2.799,-2.837 0,-1.57 1.255,-2.826 2.799,-2.826 z m -0.014,0.44 c -1.243,0 -2.26,1.067 -2.26,2.386 0,1.343 1.017,2.398 2.274,2.398 1.255,0.012 2.26,-1.055 2.26,-2.386 0,-1.331 -1.005,-2.398 -2.26,-2.398 z m -0.527,4.03 h -0.502 v -3.151 c 0.263,-0.038 0.515,-0.076 0.891,-0.076 0.478,0 0.792,0.101 0.98,0.239 0.189,0.138 0.289,0.352 0.289,0.653 0,0.414 -0.277,0.666 -0.615,0.766 v 0.025 c 0.276,0.05 0.464,0.302 0.527,0.766 0.075,0.489 0.15,0.678 0.201,0.778 h -0.528 c -0.075,-0.1 -0.15,-0.389 -0.213,-0.803 -0.076,-0.402 -0.276,-0.553 -0.678,-0.553 h -0.352 z m 0,-1.745 h 0.365 c 0.414,0 0.765,-0.151 0.765,-0.54 0,-0.276 -0.201,-0.552 -0.765,-0.552 -0.164,0 -0.277,0.013 -0.365,0.025 z"
   id="path3822"
   inkscape:connector-curvature="0" />
	<polygon
   clip-path="url(#SVGID_2_)"
   points="36.554,71.016 35.977,71.016 36.351,73.231 36.371,73.231 37.879,70.034 38.901,70.034 39.437,73.231 39.457,73.231 40.489,71.016 39.882,71.016 40.105,70.034 42.371,70.034 42.138,71.056 41.612,71.056 39.781,74.88 38.486,74.88 38,72.159 37.98,72.159 36.695,74.88 35.359,74.88 34.702,71.056 34.125,71.056 34.358,70.034 36.776,70.034 "
   id="polygon3824" />
	<path
   clip-path="url(#SVGID_2_)"
   d="m 46.881,74.82 h -2.206 l 0.092,-0.384 c -0.516,0.324 -0.871,0.445 -1.296,0.445 -0.829,0 -1.436,-0.557 -1.436,-1.326 0,-0.96 0.779,-1.76 2.428,-1.76 0.132,0 0.576,0.071 0.88,0.142 l 0.081,-0.395 c 0.091,-0.445 -0.344,-0.688 -0.819,-0.688 -0.335,0 -0.658,0.092 -1.123,0.324 L 42.753,70.46 c 0.708,-0.375 1.336,-0.546 2.074,-0.546 1.518,0 2.287,0.748 2.013,1.902 l -0.465,1.983 h 0.799 z m -1.73,-2.064 c -0.304,-0.08 -0.435,-0.1 -0.728,-0.1 -0.618,0 -1.032,0.323 -1.032,0.768 0,0.303 0.252,0.536 0.566,0.536 0.313,0 0.658,-0.141 1.012,-0.414 z"
   id="path3826"
   inkscape:connector-curvature="0" />
	<path
   clip-path="url(#SVGID_2_)"
   d="m 47.648,73.798 h 0.577 l 0.637,-2.742 h -0.647 l 0.232,-1.022 h 1.943 l -0.324,1.386 0.02,0.021 c 0.81,-1.133 1.032,-1.609 2.105,-1.407 l -0.293,1.275 c -1.053,-0.223 -1.71,0.314 -1.973,1.467 l -0.233,1.022 h 0.748 l -0.232,1.022 h -2.793 z"
   id="path3828"
   inkscape:connector-curvature="0" />
	<path
   clip-path="url(#SVGID_2_)"
   d="m 56.531,73.88 c -0.476,0.717 -1.214,1.082 -2.155,1.082 -1.336,0 -2.186,-0.809 -2.186,-2.074 0,-1.548 1.134,-2.975 2.762,-2.975 1.255,0 2.429,0.931 2.054,2.813 h -3.399 c -0.142,0.87 0.303,1.285 0.86,1.285 0.425,0 0.728,-0.192 0.981,-0.617 z m -0.85,-1.933 c 0.111,-0.698 -0.314,-1.073 -0.779,-1.073 -0.516,0 -0.87,0.345 -1.113,1.073 z"
   id="path3830"
   inkscape:connector-curvature="0" />
	<path
   clip-path="url(#SVGID_2_)"
   d="m 57.45,73.798 h 0.526 l 1.113,-4.826 h -0.648 l 0.243,-1.022 h 2.115 l -0.627,2.701 c 0.799,-0.526 1.173,-0.677 1.638,-0.677 0.851,0 1.235,0.708 1.012,1.669 l -0.506,2.155 h 0.648 L 62.73,74.82 h -2.114 l 0.708,-3.066 c 0.091,-0.384 -0.061,-0.617 -0.303,-0.617 -0.284,0 -0.648,0.192 -1.093,0.546 l -0.486,2.115 h 0.637 l -0.232,1.022 h -2.631 z"
   id="path3832"
   inkscape:connector-curvature="0" />
	<path
   clip-path="url(#SVGID_2_)"
   d="m 66.797,69.914 c 1.477,0 2.084,1.143 2.084,2.094 0,1.609 -1.224,2.954 -2.954,2.954 -1.235,0 -2.074,-0.809 -2.074,-1.993 0,-1.72 1.285,-3.055 2.944,-3.055 m -0.759,3.976 c 0.921,0 1.356,-1.255 1.356,-2.023 0,-0.527 -0.273,-0.881 -0.729,-0.881 -0.981,0 -1.325,1.366 -1.325,2.034 0,0.525 0.263,0.87 0.698,0.87"
   id="path3834"
   inkscape:connector-curvature="0" />
	<path
   clip-path="url(#SVGID_2_)"
   d="M 74.585,74.82 H 72.47 l 0.152,-0.627 c -0.415,0.283 -1.113,0.677 -1.73,0.677 -0.546,0 -1.012,-0.455 -1.012,-0.981 0,-0.192 0.051,-0.526 0.122,-0.87 l 0.455,-1.963 H 69.81 l 0.242,-1.022 h 2.115 L 71.45,73.12 c -0.091,0.375 0.03,0.597 0.273,0.597 0.253,0 0.779,-0.252 1.133,-0.556 l 0.485,-2.105 h -0.647 l 0.243,-1.022 h 2.114 l -0.87,3.764 h 0.648 z"
   id="path3836"
   inkscape:connector-curvature="0" />
	<path
   clip-path="url(#SVGID_2_)"
   d="m 75.646,73.171 h 0.941 c 0.05,0.263 0.172,0.465 0.364,0.597 0.182,0.142 0.435,0.212 0.759,0.212 0.577,0 0.931,-0.192 0.931,-0.515 0,-0.699 -1.427,-0.405 -2.145,-1.124 -0.233,-0.232 -0.374,-0.536 -0.374,-0.859 0,-0.87 0.819,-1.498 1.962,-1.498 0.476,0 0.749,0.071 1.113,0.303 l 0.061,-0.253 h 1.032 l -0.324,1.397 h -0.981 c -0.061,-0.182 -0.152,-0.334 -0.294,-0.415 -0.141,-0.091 -0.333,-0.142 -0.587,-0.142 -0.444,0 -0.738,0.182 -0.738,0.466 0,0.556 1.396,0.334 2.084,1.021 0.284,0.284 0.384,0.557 0.384,0.921 0,0.921 -0.88,1.589 -2.124,1.589 -0.577,0 -0.981,-0.101 -1.345,-0.324 l -0.061,0.273 h -1.043 z"
   id="path3838"
   inkscape:connector-curvature="0" />
	<path
   clip-path="url(#SVGID_2_)"
   d="m 85.084,73.88 c -0.476,0.717 -1.214,1.082 -2.155,1.082 -1.336,0 -2.185,-0.809 -2.185,-2.074 0,-1.548 1.133,-2.975 2.761,-2.975 1.255,0 2.429,0.931 2.054,2.813 H 82.16 c -0.142,0.87 0.303,1.285 0.86,1.285 0.425,0 0.728,-0.192 0.981,-0.617 z m -0.849,-1.933 c 0.111,-0.698 -0.314,-1.073 -0.779,-1.073 -0.516,0 -0.87,0.345 -1.113,1.073 z"
   id="path3840"
   inkscape:connector-curvature="0" />
	<path
   clip-path="url(#SVGID_2_)"
   d="m 88.391,73.798 h 0.688 l 0.637,-2.742 h -0.86 l 0.233,-1.022 h 2.327 l -0.152,0.668 c 0.87,-0.546 1.336,-0.728 1.851,-0.728 0.618,0 1.053,0.304 1.235,0.859 0.749,-0.475 1.457,-0.859 2.084,-0.859 0.769,0 1.477,0.556 1.244,1.568 l -0.515,2.256 h 0.748 l -0.233,1.022 h -2.215 l 0.668,-2.843 c 0.121,-0.516 -0.051,-0.829 -0.446,-0.829 -0.343,0 -0.799,0.222 -1.345,0.616 l -0.486,2.034 h 0.749 L 94.37,74.82 h -2.215 l 0.657,-2.843 c 0.122,-0.526 -0.02,-0.829 -0.445,-0.829 -0.405,0 -0.799,0.181 -1.346,0.616 l -0.475,2.034 h 0.749 l -0.233,1.022 h -2.904 z"
   id="path3842"
   inkscape:connector-curvature="0" />
	<path
   clip-path="url(#SVGID_2_)"
   d="m 103.362,74.82 h -2.206 l 0.091,-0.384 c -0.515,0.324 -0.87,0.445 -1.295,0.445 -0.829,0 -1.436,-0.557 -1.436,-1.326 0,-0.96 0.779,-1.76 2.428,-1.76 0.132,0 0.577,0.071 0.88,0.142 l 0.081,-0.395 c 0.091,-0.445 -0.344,-0.688 -0.819,-0.688 -0.334,0 -0.658,0.092 -1.123,0.324 L 99.234,70.46 c 0.709,-0.375 1.336,-0.546 2.074,-0.546 1.518,0 2.287,0.748 2.014,1.902 l -0.466,1.983 h 0.799 z m -1.73,-2.064 c -0.303,-0.08 -0.435,-0.1 -0.728,-0.1 -0.618,0 -1.032,0.323 -1.032,0.768 0,0.303 0.252,0.536 0.566,0.536 0.314,0 0.658,-0.141 1.012,-0.414 z"
   id="path3844"
   inkscape:connector-curvature="0" />
	<path
   clip-path="url(#SVGID_2_)"
   d="m 104.109,73.798 h 0.526 l 0.637,-2.742 h -0.718 l 0.233,-1.022 h 2.185 l -0.142,0.597 c 0.709,-0.424 1.053,-0.657 1.65,-0.657 0.728,0 1.275,0.576 1.052,1.548 l -0.526,2.276 h 0.647 l -0.232,1.022 h -2.115 l 0.698,-3.025 c 0.111,-0.466 -0.061,-0.668 -0.313,-0.668 -0.304,0 -0.638,0.202 -1.093,0.526 l -0.496,2.145 h 0.607 l -0.232,1.022 h -2.601 z"
   id="path3846"
   inkscape:connector-curvature="0" />
	<path
   clip-path="url(#SVGID_2_)"
   d="m 115.267,74.82 h -2.206 l 0.091,-0.384 c -0.515,0.324 -0.87,0.445 -1.295,0.445 -0.829,0 -1.436,-0.557 -1.436,-1.326 0,-0.96 0.779,-1.76 2.428,-1.76 0.132,0 0.577,0.071 0.88,0.142 l 0.081,-0.395 c 0.091,-0.445 -0.344,-0.688 -0.819,-0.688 -0.334,0 -0.658,0.092 -1.123,0.324 l -0.729,-0.718 c 0.708,-0.375 1.336,-0.546 2.074,-0.546 1.518,0 2.287,0.748 2.013,1.902 l -0.465,1.983 h 0.799 z m -1.73,-2.064 c -0.303,-0.08 -0.435,-0.1 -0.728,-0.1 -0.618,0 -1.032,0.323 -1.032,0.768 0,0.303 0.252,0.536 0.566,0.536 0.314,0 0.658,-0.141 1.012,-0.414 z"
   id="path3848"
   inkscape:connector-curvature="0" />
	<path
   clip-path="url(#SVGID_2_)"
   d="m 116.015,75.539 c 0.708,0.314 1.072,0.415 1.568,0.415 0.88,0 1.457,-0.395 1.629,-1.133 l 0.131,-0.526 -0.02,-0.021 c -0.465,0.436 -0.799,0.587 -1.285,0.587 -1.042,0 -1.73,-0.789 -1.73,-1.983 0,-1.538 1.164,-2.893 2.499,-2.893 0.567,0 1.012,0.283 1.325,0.84 l 0.182,-0.79 h 2.024 l -0.233,1.022 h -0.526 l -0.84,3.612 c -0.364,1.568 -1.365,2.398 -2.984,2.398 -0.799,0 -1.579,-0.152 -2.186,-0.465 z m 3.803,-3.541 c 0,-0.435 -0.243,-0.87 -0.769,-0.87 -0.83,0 -1.254,1.093 -1.254,1.74 0,0.476 0.252,0.87 0.798,0.87 0.871,-0.001 1.225,-1.032 1.225,-1.74"
   id="path3850"
   inkscape:connector-curvature="0" />
	<path
   clip-path="url(#SVGID_2_)"
   d="m 126.605,73.88 c -0.475,0.717 -1.214,1.082 -2.155,1.082 -1.335,0 -2.185,-0.809 -2.185,-2.074 0,-1.548 1.134,-2.975 2.762,-2.975 1.255,0 2.428,0.931 2.054,2.813 h -3.399 c -0.142,0.87 0.303,1.285 0.859,1.285 0.425,0 0.729,-0.192 0.982,-0.617 z m -0.849,-1.933 c 0.111,-0.698 -0.314,-1.073 -0.779,-1.073 -0.516,0 -0.871,0.345 -1.113,1.073 z"
   id="path3852"
   inkscape:connector-curvature="0" />
	<path
   clip-path="url(#SVGID_2_)"
   d="m 127.383,73.798 h 0.688 l 0.637,-2.742 h -0.86 l 0.233,-1.022 h 2.327 l -0.151,0.668 c 0.869,-0.546 1.335,-0.728 1.851,-0.728 0.617,0 1.052,0.304 1.234,0.859 0.749,-0.475 1.457,-0.859 2.084,-0.859 0.769,0 1.477,0.556 1.244,1.568 l -0.515,2.256 h 0.748 l -0.233,1.022 h -2.215 l 0.668,-2.843 c 0.121,-0.516 -0.051,-0.829 -0.445,-0.829 -0.344,0 -0.8,0.222 -1.346,0.616 l -0.486,2.034 h 0.749 l -0.233,1.022 h -2.216 l 0.658,-2.843 c 0.122,-0.526 -0.02,-0.829 -0.445,-0.829 -0.405,0 -0.799,0.181 -1.346,0.616 l -0.475,2.034 h 0.749 l -0.233,1.022 h -2.904 z"
   id="path3854"
   inkscape:connector-curvature="0" />
	<path
   clip-path="url(#SVGID_2_)"
   d="m 141.99,73.88 c -0.476,0.717 -1.214,1.082 -2.155,1.082 -1.336,0 -2.185,-0.809 -2.185,-2.074 0,-1.548 1.133,-2.975 2.762,-2.975 1.254,0 2.428,0.931 2.053,2.813 h -3.399 c -0.142,0.87 0.303,1.285 0.86,1.285 0.425,0 0.728,-0.192 0.981,-0.617 z m -0.849,-1.933 c 0.111,-0.698 -0.314,-1.073 -0.779,-1.073 -0.516,0 -0.87,0.345 -1.113,1.073 z"
   id="path3856"
   inkscape:connector-curvature="0" />
	<path
   clip-path="url(#SVGID_2_)"
   d="m 142.889,73.798 h 0.526 l 0.638,-2.742 h -0.719 l 0.233,-1.022 h 2.185 l -0.142,0.597 c 0.709,-0.424 1.053,-0.657 1.65,-0.657 0.728,0 1.275,0.576 1.052,1.548 l -0.526,2.276 h 0.648 l -0.233,1.022 h -2.115 l 0.698,-3.025 c 0.112,-0.466 -0.06,-0.668 -0.313,-0.668 -0.304,0 -0.638,0.202 -1.093,0.526 l -0.496,2.145 h 0.607 l -0.233,1.022 h -2.6 z"
   id="path3858"
   inkscape:connector-curvature="0" />
	<path
   clip-path="url(#SVGID_2_)"
   d="m 151.72,74.668 c -0.384,0.182 -0.86,0.293 -1.234,0.293 -0.618,0 -1.032,-0.384 -1.032,-0.971 0,-0.222 0.03,-0.455 0.081,-0.668 l 0.526,-2.266 h -0.567 l 0.233,-1.022 h 0.566 l 0.162,-0.698 1.75,-1.214 -0.444,1.912 h 0.647 l -0.233,1.022 h -0.647 l -0.516,2.216 c -0.081,0.364 -0.051,0.526 0.263,0.526 0.171,0 0.415,-0.071 0.708,-0.233 z"
   id="path3860"
   inkscape:connector-curvature="0" />
	<path
   clip-path="url(#SVGID_2_)"
   d="m 155.098,73.171 h 0.941 c 0.05,0.263 0.172,0.465 0.364,0.597 0.183,0.142 0.435,0.212 0.759,0.212 0.577,0 0.931,-0.192 0.931,-0.515 0,-0.699 -1.427,-0.405 -2.145,-1.124 -0.233,-0.232 -0.375,-0.536 -0.375,-0.859 0,-0.87 0.82,-1.498 1.963,-1.498 0.476,0 0.749,0.071 1.113,0.303 l 0.061,-0.253 h 1.032 l -0.323,1.397 h -0.982 c -0.061,-0.182 -0.152,-0.334 -0.294,-0.415 -0.141,-0.091 -0.333,-0.142 -0.587,-0.142 -0.445,0 -0.738,0.182 -0.738,0.466 0,0.556 1.396,0.334 2.084,1.021 0.284,0.284 0.384,0.557 0.384,0.921 0,0.921 -0.88,1.589 -2.124,1.589 -0.576,0 -0.982,-0.101 -1.345,-0.324 l -0.061,0.273 h -1.042 z"
   id="path3862"
   inkscape:connector-curvature="0" />
	<polygon
   clip-path="url(#SVGID_2_)"
   points="165.76,70.035 165.527,71.057 164.88,71.057 161.44,76.996 159.74,76.996 159.973,75.974 160.772,75.974 161.339,74.972 160.61,71.057 160.084,71.057 160.327,70.035 162.836,70.035 162.593,71.057 162.017,71.057 162.269,73.344 162.29,73.344 163.605,71.057 163.028,71.057 163.261,70.035 "
   id="polygon3864" />
	<path
   clip-path="url(#SVGID_2_)"
   d="m 165.749,73.171 h 0.941 c 0.05,0.263 0.172,0.465 0.364,0.597 0.183,0.142 0.435,0.212 0.759,0.212 0.577,0 0.931,-0.192 0.931,-0.515 0,-0.699 -1.427,-0.405 -2.146,-1.124 -0.232,-0.232 -0.374,-0.536 -0.374,-0.859 0,-0.87 0.82,-1.498 1.963,-1.498 0.476,0 0.749,0.071 1.113,0.303 l 0.06,-0.253 h 1.033 l -0.324,1.397 h -0.981 c -0.061,-0.182 -0.152,-0.334 -0.294,-0.415 -0.141,-0.091 -0.333,-0.142 -0.587,-0.142 -0.445,0 -0.738,0.182 -0.738,0.466 0,0.556 1.396,0.334 2.084,1.021 0.284,0.284 0.384,0.557 0.384,0.921 0,0.921 -0.88,1.589 -2.124,1.589 -0.576,0 -0.982,-0.101 -1.345,-0.324 l -0.062,0.273 h -1.041 z"
   id="path3866"
   inkscape:connector-curvature="0" />
	<path
   clip-path="url(#SVGID_2_)"
   d="m 173.224,74.668 c -0.384,0.182 -0.86,0.293 -1.234,0.293 -0.618,0 -1.032,-0.384 -1.032,-0.971 0,-0.222 0.03,-0.455 0.081,-0.668 l 0.526,-2.266 h -0.567 l 0.233,-1.022 h 0.566 l 0.163,-0.698 1.75,-1.214 -0.445,1.912 h 0.647 l -0.233,1.022 h -0.647 l -0.516,2.216 c -0.081,0.364 -0.05,0.526 0.263,0.526 0.172,0 0.415,-0.071 0.708,-0.233 z"
   id="path3868"
   inkscape:connector-curvature="0" />
	<path
   clip-path="url(#SVGID_2_)"
   d="m 178.555,73.88 c -0.476,0.717 -1.214,1.082 -2.155,1.082 -1.336,0 -2.185,-0.809 -2.185,-2.074 0,-1.548 1.133,-2.975 2.762,-2.975 1.254,0 2.428,0.931 2.053,2.813 h -3.399 c -0.142,0.87 0.303,1.285 0.86,1.285 0.425,0 0.728,-0.192 0.981,-0.617 z m -0.85,-1.933 c 0.112,-0.698 -0.313,-1.073 -0.779,-1.073 -0.516,0 -0.87,0.345 -1.113,1.073 z"
   id="path3870"
   inkscape:connector-curvature="0" />
	<path
   clip-path="url(#SVGID_2_)"
   d="m 179.333,73.798 h 0.688 l 0.637,-2.742 h -0.86 l 0.233,-1.022 h 2.327 l -0.152,0.668 c 0.87,-0.546 1.336,-0.728 1.851,-0.728 0.618,0 1.053,0.304 1.235,0.859 0.749,-0.475 1.457,-0.859 2.084,-0.859 0.769,0 1.477,0.556 1.244,1.568 l -0.516,2.256 h 0.749 l -0.233,1.022 h -2.215 l 0.668,-2.843 c 0.121,-0.516 -0.051,-0.829 -0.446,-0.829 -0.343,0 -0.799,0.222 -1.346,0.616 l -0.485,2.034 h 0.749 l -0.233,1.022 h -2.216 l 0.658,-2.843 c 0.122,-0.526 -0.02,-0.829 -0.445,-0.829 -0.405,0 -0.799,0.181 -1.346,0.616 l -0.475,2.034 h 0.749 l -0.233,1.022 H 179.1 Z"
   id="path3872"
   inkscape:connector-curvature="0" />
	<path
   clip-path="url(#SVGID_2_)"
   d="m 189.457,73.171 h 0.941 c 0.05,0.263 0.172,0.465 0.364,0.597 0.183,0.142 0.435,0.212 0.759,0.212 0.577,0 0.931,-0.192 0.931,-0.515 0,-0.699 -1.427,-0.405 -2.145,-1.124 -0.233,-0.232 -0.374,-0.536 -0.374,-0.859 0,-0.87 0.819,-1.498 1.963,-1.498 0.475,0 0.748,0.071 1.113,0.303 l 0.06,-0.253 h 1.032 l -0.323,1.397 h -0.982 c -0.061,-0.182 -0.152,-0.334 -0.293,-0.415 -0.142,-0.091 -0.334,-0.142 -0.587,-0.142 -0.445,0 -0.739,0.182 -0.739,0.466 0,0.556 1.396,0.334 2.085,1.021 0.283,0.284 0.384,0.557 0.384,0.921 0,0.921 -0.881,1.589 -2.125,1.589 -0.576,0 -0.981,-0.101 -1.345,-0.324 l -0.061,0.273 h -1.042 z"
   id="path3874"
   inkscape:connector-curvature="0" />
	<rect
   x="173.049"
   y="50.403999"
   clip-path="url(#SVGID_2_)"
   width="5.4070001"
   height="5.4070001"
   id="rect3876"
   style="fill:#005288" />
	<rect
   x="181.159"
   y="50.403999"
   clip-path="url(#SVGID_2_)"
   width="5.4060001"
   height="5.4070001"
   id="rect3878"
   style="fill:#005288" />
	<rect
   x="189.298"
   y="50.403999"
   clip-path="url(#SVGID_2_)"
   width="5.4070001"
   height="5.4070001"
   id="rect3880"
   style="fill:#005288" />
</g>
</svg>